# xmcd
#
# Track frame offsets:
#	150
#	16450
#	24213
#	38106
#	57465
#	71322
#	95189
#	118693
#	136951
#	155842
#	176083
#	195623
#	208748
#	221437
#	234991
#
# Disc length: 3368 seconds
#
# Revision: 0
# Processed by: cddbd v1.5.2PL0 Copyright (c) Steve Scherf et al.
# Submitted via: EZCDAudioConverter 2.1.7.1
#
DISCID=d60d260f
DTITLE=Chris Bell - I Am The Cosmos 2/2
DYEAR=1900
DGENRE=
TTITLE0=Looking Forward
TTITLE1=Sunshine
TTITLE2=My Life Is Right
TTITLE3=I Don't Know [Alternate Version]
TTITLE4=You And Your Sister [Alternate Version]
TTITLE5=I Am The Cosmos [Extended Alternate]
TTITLE6=Speed Of Sound [Alternate Version]
TTITLE7=Fight At The Table [Alternate Mix]
TTITLE8=Make A Scene [Alternate Mix]
TTITLE9=Better Save Yourself [Alternate Mix]
TTITLE10=Get Away [Alternate Version]
TTITLE11=You And Your Sister [Acoustic Version]
TTITLE12=Stay With Me
TTITLE13=In My Darkest Hour
TTITLE14=Clacton Rag [Instrumental]
EXTD=
EXTT0=
EXTT1=
EXTT2=
EXTT3=
EXTT4=
EXTT5=
EXTT6=
EXTT7=
EXTT8=
EXTT9=
EXTT10=
EXTT11=
EXTT12=
EXTT13=
EXTT14=
PLAYORDER=
